<?xml version="1.0" encoding="UTF-8" standalone="no"?>
<!-- Created with Inkscape (http://www.inkscape.org/) -->

<svg
   width="210mm"
   height="297mm"
   viewBox="0 0 210 297"
   version="1.1"
   id="svg1"
   inkscape:version="1.3 (0e150ed6c4, 2023-07-21)"
   sodipodi:docname="logo_inkscape.svg"
   inkscape:export-filename="logo.svg"
   inkscape:export-xdpi="96"
   inkscape:export-ydpi="96"
   xmlns:inkscape="http://www.inkscape.org/namespaces/inkscape"
   xmlns:sodipodi="http://sodipodi.sourceforge.net/DTD/sodipodi-0.dtd"
   xmlns="http://www.w3.org/2000/svg"
   xmlns:svg="http://www.w3.org/2000/svg">
  <sodipodi:namedview
     id="namedview1"
     pagecolor="#ffffff"
     bordercolor="#000000"
     borderopacity="0.25"
     inkscape:showpageshadow="2"
     inkscape:pageopacity="0.0"
     inkscape:pagecheckerboard="0"
     inkscape:deskcolor="#d1d1d1"
     inkscape:document-units="mm"
     showguides="true"
     inkscape:zoom="2"
     inkscape:cx="337"
     inkscape:cy="224.75"
     inkscape:window-width="1920"
     inkscape:window-height="1009"
     inkscape:window-x="-8"
     inkscape:window-y="-8"
     inkscape:window-maximized="1"
     inkscape:current-layer="g4">
    <sodipodi:guide
       position="90.9631,207.8178"
       orientation="1,0"
       id="guide2"
       inkscape:locked="false" />
    <sodipodi:guide
       position="76.030902,215.58073"
       orientation="1,0"
       id="guide3"
       inkscape:locked="false" />
    <sodipodi:guide
       position="94.985414,211.50652"
       orientation="1,0"
       id="guide4"
       inkscape:locked="false" />
  </sodipodi:namedview>
  <defs
     id="defs1">
    <symbol
       id="And_Gate">
      <title
         id="title11">And Gate</title>
      <path
         d="M 25,70 V 60 50 40 30 h 30 c 11.045695,0 20,8.954305 20,20 0,11.045695 -8.954305,20 -20,20 z"
         id="path12" />
    </symbol>
    <symbol
       id="Xor_Gate">
      <title
         id="title4">Xor Gate</title>
      <path
         d="M 24.65625,70 H 45 C 65,70 75,50 75,50 75,50 70,30 45,30 H 24.65625 c 1.789926,3.094188 3.151364,6.453471 4.0625,10 C 29.54012,43.197121 30,46.545819 30,50 c 0,3.454181 -0.45988,6.802879 -1.28125,10 -0.911136,3.546529 -2.272574,6.905812 -4.0625,10 z"
         id="path5" />
      <path
         d="M 18.65625,70 C 22.629549,64.322431 25,57.455703 25,50 25,42.544297 22.629549,35.677569 18.65625,30"
         id="path6" />
    </symbol>
  </defs>
  <g
     inkscape:label="Calque 1"
     inkscape:groupmode="layer"
     id="layer1">
    <rect
       style="fill:#000000;stroke-width:0.429001;stroke-dasharray:none"
       id="rect4"
       width="122.36979"
       height="25.664583"
       x="18.520832"
       y="64.161461" />
    <g
       id="g4"
       transform="translate(0.52916667,24.738542)"
       inkscape:export-filename="logo_light.svg"
       inkscape:export-xdpi="96"
       inkscape:export-ydpi="96">
      <g
         id="use1-5"
         style="fill:none;fill-opacity:1;stroke:#ffffff;stroke-width:2.96651;stroke-dasharray:none;stroke-opacity:1"
         transform="matrix(0.17831071,0,0,0.16316678,30.202896,40.458472)"
         inkscape:export-filename="logo_minimal.svg"
         inkscape:export-xdpi="96"
         inkscape:export-ydpi="96">
        <title
           id="title2-8">And Gate</title>
        <path
           d="M 25,70 V 60 50 40 30 h 30 c 11.045695,0 20,8.954305 20,20 0,11.045695 -8.954305,20 -20,20 z"
           id="path3-8"
           style="stroke:#ffffff;stroke-opacity:1" />
      </g>
      <g
         id="use1-2-3"
         style="fill:none;fill-opacity:1;stroke:#ffffff;stroke-width:3.13488;stroke-dasharray:none;stroke-opacity:1"
         transform="matrix(0.15918642,0,0,0.16366389,31.624343,49.633055)">
        <title
           id="title1-1">Xor Gate</title>
        <path
           d="M 24.65625,70 H 45 C 65,70 75,50 75,50 75,50 70,30 45,30 H 24.65625 c 1.789926,3.094188 3.151364,6.453471 4.0625,10 C 29.54012,43.197121 30,46.545819 30,50 c 0,3.454181 -0.45988,6.802879 -1.28125,10 -0.911136,3.546529 -2.272574,6.905812 -4.0625,10 z"
           id="path1-8"
           style="stroke:#ffffff;stroke-width:3.13488;stroke-dasharray:none;stroke-opacity:1" />
        <path
           d="M 18.65625,70 C 22.629549,64.322431 25,57.455703 25,50 25,42.544297 22.629549,35.677569 18.65625,30"
           id="path2-5"
           style="stroke:#ffffff;stroke-width:3.13488;stroke-dasharray:none;stroke-opacity:1" />
      </g>
      <rect
         style="fill:none;fill-opacity:1;stroke:#ffffff;stroke-width:0.429;stroke-dasharray:none;stroke-opacity:1"
         id="rect3-8"
         width="9.2724743"
         height="0.37090015"
         x="25.217625"
         y="46.88657" />
      <rect
         style="fill:none;fill-opacity:1;stroke:#ffffff;stroke-width:0.429;stroke-dasharray:none;stroke-opacity:1"
         id="rect3-4-3"
         width="2.5088465"
         height="0.37090015"
         x="43.720013"
         y="48.438625"
         inkscape:export-filename="logo_minimal_light.svg"
         inkscape:export-xdpi="96"
         inkscape:export-ydpi="96" />
      <rect
         style="fill:none;fill-opacity:1;stroke:#ffffff;stroke-width:0.429;stroke-dasharray:none;stroke-opacity:1"
         id="rect3-4-0-7"
         width="2.7184651"
         height="0.37090015"
         x="43.507961"
         y="57.610394" />
      <rect
         style="fill:none;fill-opacity:1;stroke:#ffffff;stroke-width:0.429;stroke-dasharray:none;stroke-opacity:1"
         id="rect3-6-9"
         width="9.2724743"
         height="0.37090015"
         x="25.217625"
         y="50.320492" />
      <rect
         style="fill:none;fill-opacity:1;stroke:#ffffff;stroke-width:0.429;stroke-dasharray:none;stroke-opacity:1"
         id="rect3-6-8-61"
         width="9.3440533"
         height="0.37089899"
         x="-56.466808"
         y="32.009655"
         transform="rotate(-90)" />
      <rect
         style="fill:none;fill-opacity:1;stroke:#ffffff;stroke-width:0.429;stroke-dasharray:none;stroke-opacity:1"
         id="rect3-6-8-6-0"
         width="9.3900537"
         height="0.37089899"
         x="-59.931797"
         y="29.752399"
         transform="rotate(-90)" />
      <rect
         style="fill:none;fill-opacity:1;stroke:#ffffff;stroke-width:0.429;stroke-dasharray:none;stroke-opacity:1"
         id="rect3-6-0-8"
         width="3.159564"
         height="0.37090015"
         x="32.139942"
         y="56.097843" />
      <rect
         style="fill:none;fill-opacity:1;stroke:#ffffff;stroke-width:0.429;stroke-dasharray:none;stroke-opacity:1"
         id="rect3-6-0-4-1"
         width="5.3880157"
         height="0.37090015"
         x="29.886288"
         y="59.558361" />
      <text
         xml:space="preserve"
         style="font-size:19.7556px;fill:#000000;stroke:none;stroke-width:0.264583;stroke-opacity:1"
         x="50.623608"
         y="59.861843"
         id="text4-9"><tspan
           sodipodi:role="line"
           id="tspan4-7"
           style="font-style:normal;font-variant:normal;font-weight:normal;font-stretch:normal;font-size:19.7556px;font-family:'Text Me One';-inkscape-font-specification:'Text Me One';fill:#ffffff;fill-opacity:1;stroke:none;stroke-width:0.264583;stroke-opacity:1"
           x="50.623608"
           y="59.861843">NETLIST++</tspan></text>
    </g>
    <g
       id="g5">
      <g
         id="use1"
         style="fill:none;fill-opacity:1;stroke:#000000;stroke-width:2.96651;stroke-dasharray:none;stroke-opacity:1"
         transform="matrix(0.17831071,0,0,0.16316678,29.482128,8.9767554)"
         inkscape:export-filename="logo_minimal.svg"
         inkscape:export-xdpi="96"
         inkscape:export-ydpi="96">
        <title
           id="title2">And Gate</title>
        <path
           d="M 25,70 V 60 50 40 30 h 30 c 11.045695,0 20,8.954305 20,20 0,11.045695 -8.954305,20 -20,20 z"
           id="path3" />
      </g>
      <g
         id="use1-2"
         style="fill:none;fill-opacity:1;stroke:#000000;stroke-width:3.1348811;stroke-dasharray:none;stroke-opacity:1"
         transform="matrix(0.15918642,0,0,0.16366389,30.903575,18.151338)">
        <title
           id="title1">Xor Gate</title>
        <path
           d="M 24.65625,70 H 45 C 65,70 75,50 75,50 75,50 70,30 45,30 H 24.65625 c 1.789926,3.094188 3.151364,6.453471 4.0625,10 C 29.54012,43.197121 30,46.545819 30,50 c 0,3.454181 -0.45988,6.802879 -1.28125,10 -0.911136,3.546529 -2.272574,6.905812 -4.0625,10 z"
           id="path1"
           style="stroke-width:3.1348811;stroke-dasharray:none" />
        <path
           d="M 18.65625,70 C 22.629549,64.322431 25,57.455703 25,50 25,42.544297 22.629549,35.677569 18.65625,30"
           id="path2"
           style="stroke-width:3.1348811;stroke-dasharray:none" />
      </g>
      <rect
         style="fill:none;fill-opacity:1;stroke:#000000;stroke-width:0.429;stroke-dasharray:none;stroke-opacity:1"
         id="rect3"
         width="9.2724743"
         height="0.37090015"
         x="24.496857"
         y="15.404858" />
      <rect
         style="fill:none;fill-opacity:1;stroke:#000000;stroke-width:0.429;stroke-dasharray:none;stroke-opacity:1"
         id="rect3-4"
         width="2.5088465"
         height="0.37090015"
         x="42.999249"
         y="16.956913" />
      <rect
         style="fill:none;fill-opacity:1;stroke:#000000;stroke-width:0.429;stroke-dasharray:none;stroke-opacity:1"
         id="rect3-4-0"
         width="2.7184651"
         height="0.37090015"
         x="42.787197"
         y="26.128674" />
      <rect
         style="fill:none;fill-opacity:1;stroke:#000000;stroke-width:0.429;stroke-dasharray:none;stroke-opacity:1"
         id="rect3-6"
         width="9.2724743"
         height="0.37090015"
         x="24.496857"
         y="18.838779" />
      <rect
         style="fill:none;fill-opacity:1;stroke:#000000;stroke-width:0.429;stroke-dasharray:none;stroke-opacity:1"
         id="rect3-6-8"
         width="9.3440533"
         height="0.37089899"
         x="-24.985088"
         y="31.288883"
         transform="rotate(-90)" />
      <rect
         style="fill:none;fill-opacity:1;stroke:#000000;stroke-width:0.429;stroke-dasharray:none;stroke-opacity:1"
         id="rect3-6-8-6"
         width="9.3900537"
         height="0.37089899"
         x="-28.450077"
         y="29.031628"
         transform="rotate(-90)" />
      <rect
         style="fill:none;fill-opacity:1;stroke:#000000;stroke-width:0.429;stroke-dasharray:none;stroke-opacity:1"
         id="rect3-6-0"
         width="3.159564"
         height="0.37090015"
         x="31.419174"
         y="24.616123" />
      <rect
         style="fill:none;fill-opacity:1;stroke:#000000;stroke-width:0.429;stroke-dasharray:none;stroke-opacity:1"
         id="rect3-6-0-4"
         width="5.3880157"
         height="0.37090015"
         x="29.165524"
         y="28.076641" />
      <text
         xml:space="preserve"
         style="font-size:19.7556px;fill:#000000;stroke:none;stroke-width:0.264583;stroke-opacity:1"
         x="49.902836"
         y="28.380123"
         id="text4"><tspan
           sodipodi:role="line"
           id="tspan4"
           style="font-style:normal;font-variant:normal;font-weight:normal;font-stretch:normal;font-size:19.7556px;font-family:'Text Me One';-inkscape-font-specification:'Text Me One';stroke-width:0.264583"
           x="49.902836"
           y="28.380123">NETLIST++</tspan></text>
    </g>
  </g>
</svg>
