<?xml version="1.0" encoding="UTF-8" standalone="no"?>
<!DOCTYPE svg PUBLIC "-//W3C//DTD SVG 1.1//EN"
 "http://www.w3.org/Graphics/SVG/1.1/DTD/svg11.dtd">
<!-- Generated by graphviz version 2.43.0 (0)
 -->
<!-- Title: Graphical Class Hierarchy Pages: 1 -->
<svg width="351pt" height="465pt"
 viewBox="0.00 0.00 351.00 465.00" xmlns="http://www.w3.org/2000/svg" xmlns:xlink="http://www.w3.org/1999/xlink">
<g id="graph0" class="graph" transform="scale(1 1) rotate(0) translate(4 461)">
<title>Graphical Class Hierarchy</title>
<!-- Node0 -->
<g id="node1" class="node">
<title>Node0</title>
<g id="a_node1"><a xlink:href="structInstruction.html" target="_top" xlink:title="Base class for all instructions.">
<polygon fill="none" stroke="black" points="0,-171.5 0,-190.5 68,-190.5 68,-171.5 0,-171.5"/>
<text text-anchor="middle" x="34" y="-178.5" font-family="Helvetica,sans-Serif" font-size="10.00">Instruction</text>
</a>
</g>
</g>
<!-- Node1 -->
<g id="node2" class="node">
<title>Node1</title>
<g id="a_node2"><a xlink:href="structBinaryInstruction.html" target="_top" xlink:title="Base class for all binary instructions such as AND or XOR.">
<polygon fill="none" stroke="black" points="108.5,-342.5 108.5,-361.5 208.5,-361.5 208.5,-342.5 108.5,-342.5"/>
<text text-anchor="middle" x="158.5" y="-349.5" font-family="Helvetica,sans-Serif" font-size="10.00">BinaryInstruction</text>
</a>
</g>
</g>
<!-- Node0&#45;&gt;Node1 -->
<g id="edge1" class="edge">
<title>Node0&#45;&gt;Node1</title>
<path fill="none" stroke="midnightblue" d="M38.74,-200.67C45.85,-232.78 64.29,-296.52 104,-333 108.21,-336.87 113.26,-339.96 118.55,-342.42"/>
<polygon fill="midnightblue" stroke="midnightblue" points="42.14,-199.81 36.69,-190.73 35.29,-201.23 42.14,-199.81"/>
</g>
<!-- Node8 -->
<g id="node9" class="node">
<title>Node8</title>
<g id="a_node9"><a xlink:href="structConcatInstruction.html" target="_top" xlink:title="The output = CONCAT lhs rhs instruction.">
<polygon fill="none" stroke="black" points="107.5,-304.5 107.5,-323.5 209.5,-323.5 209.5,-304.5 107.5,-304.5"/>
<text text-anchor="middle" x="158.5" y="-311.5" font-family="Helvetica,sans-Serif" font-size="10.00">ConcatInstruction</text>
</a>
</g>
</g>
<!-- Node0&#45;&gt;Node8 -->
<g id="edge8" class="edge">
<title>Node0&#45;&gt;Node8</title>
<path fill="none" stroke="midnightblue" d="M41.93,-200.33C51.9,-225.54 72.62,-269.42 104,-295 108.74,-298.86 114.32,-301.97 120.05,-304.46"/>
<polygon fill="midnightblue" stroke="midnightblue" points="45.13,-198.9 38.31,-190.78 38.58,-201.37 45.13,-198.9"/>
</g>
<!-- Node9 -->
<g id="node10" class="node">
<title>Node9</title>
<g id="a_node10"><a xlink:href="structConstInstruction.html" target="_top" xlink:title="The output = constant instruction.">
<polygon fill="none" stroke="black" points="110.5,-266.5 110.5,-285.5 206.5,-285.5 206.5,-266.5 110.5,-266.5"/>
<text text-anchor="middle" x="158.5" y="-273.5" font-family="Helvetica,sans-Serif" font-size="10.00">ConstInstruction</text>
</a>
</g>
</g>
<!-- Node0&#45;&gt;Node9 -->
<g id="edge9" class="edge">
<title>Node0&#45;&gt;Node9</title>
<path fill="none" stroke="midnightblue" d="M47.34,-199.1C59.83,-216.17 80.6,-241.42 104,-257 109.66,-260.77 116.16,-263.89 122.63,-266.43"/>
<polygon fill="midnightblue" stroke="midnightblue" points="49.93,-196.69 41.29,-190.56 44.22,-200.74 49.93,-196.69"/>
</g>
<!-- Node10 -->
<g id="node11" class="node">
<title>Node10</title>
<g id="a_node11"><a xlink:href="structLoadInstruction.html" target="_top" xlink:title="The output = input instruction.">
<polygon fill="none" stroke="black" points="112.5,-228.5 112.5,-247.5 204.5,-247.5 204.5,-228.5 112.5,-228.5"/>
<text text-anchor="middle" x="158.5" y="-235.5" font-family="Helvetica,sans-Serif" font-size="10.00">LoadInstruction</text>
</a>
</g>
</g>
<!-- Node0&#45;&gt;Node10 -->
<g id="edge10" class="edge">
<title>Node0&#45;&gt;Node10</title>
<path fill="none" stroke="midnightblue" d="M59.32,-195.66C72.31,-203.16 88.74,-212.14 104,-219 111.64,-222.43 120.11,-225.68 128.01,-228.49"/>
<polygon fill="midnightblue" stroke="midnightblue" points="60.92,-192.54 50.52,-190.5 57.38,-198.58 60.92,-192.54"/>
</g>
<!-- Node11 -->
<g id="node12" class="node">
<title>Node11</title>
<g id="a_node12"><a xlink:href="structMemoryInstruction.html" target="_top" xlink:title="Base class for ROM and RAM instructions.">
<polygon fill="none" stroke="black" points="104,-190.5 104,-209.5 213,-209.5 213,-190.5 104,-190.5"/>
<text text-anchor="middle" x="158.5" y="-197.5" font-family="Helvetica,sans-Serif" font-size="10.00">MemoryInstruction</text>
</a>
</g>
</g>
<!-- Node0&#45;&gt;Node11 -->
<g id="edge11" class="edge">
<title>Node0&#45;&gt;Node11</title>
<path fill="none" stroke="midnightblue" d="M78.22,-187.7C86.41,-188.97 95.07,-190.32 103.54,-191.63"/>
<polygon fill="midnightblue" stroke="midnightblue" points="78.57,-184.22 68.15,-186.14 77.5,-191.13 78.57,-184.22"/>
</g>
<!-- Node14 -->
<g id="node15" class="node">
<title>Node14</title>
<g id="a_node15"><a xlink:href="structMuxInstruction.html" target="_top" xlink:title="The output = MUX choice first second instruction.">
<polygon fill="none" stroke="black" points="114,-152.5 114,-171.5 203,-171.5 203,-152.5 114,-152.5"/>
<text text-anchor="middle" x="158.5" y="-159.5" font-family="Helvetica,sans-Serif" font-size="10.00">MuxInstruction</text>
</a>
</g>
</g>
<!-- Node0&#45;&gt;Node14 -->
<g id="edge14" class="edge">
<title>Node0&#45;&gt;Node14</title>
<path fill="none" stroke="midnightblue" d="M78.38,-174.27C89.85,-172.49 102.24,-170.57 113.73,-168.79"/>
<polygon fill="midnightblue" stroke="midnightblue" points="77.5,-170.87 68.15,-175.86 78.57,-177.78 77.5,-170.87"/>
</g>
<!-- Node15 -->
<g id="node16" class="node">
<title>Node15</title>
<g id="a_node16"><a xlink:href="structNotInstruction.html" target="_top" xlink:title="The output = NOT input instruction.">
<polygon fill="none" stroke="black" points="115.5,-114.5 115.5,-133.5 201.5,-133.5 201.5,-114.5 115.5,-114.5"/>
<text text-anchor="middle" x="158.5" y="-121.5" font-family="Helvetica,sans-Serif" font-size="10.00">NotInstruction</text>
</a>
</g>
</g>
<!-- Node0&#45;&gt;Node15 -->
<g id="edge15" class="edge">
<title>Node0&#45;&gt;Node15</title>
<path fill="none" stroke="midnightblue" d="M59.32,-166.34C72.31,-158.84 88.74,-149.86 104,-143 111.64,-139.57 120.11,-136.32 128.01,-133.51"/>
<polygon fill="midnightblue" stroke="midnightblue" points="57.38,-163.42 50.52,-171.5 60.92,-169.46 57.38,-163.42"/>
</g>
<!-- Node16 -->
<g id="node17" class="node">
<title>Node16</title>
<g id="a_node17"><a xlink:href="structRegInstruction.html" target="_top" xlink:title="The output = REG input instruction.">
<polygon fill="none" stroke="black" points="115,-76.5 115,-95.5 202,-95.5 202,-76.5 115,-76.5"/>
<text text-anchor="middle" x="158.5" y="-83.5" font-family="Helvetica,sans-Serif" font-size="10.00">RegInstruction</text>
</a>
</g>
</g>
<!-- Node0&#45;&gt;Node16 -->
<g id="edge16" class="edge">
<title>Node0&#45;&gt;Node16</title>
<path fill="none" stroke="midnightblue" d="M47.34,-162.9C59.83,-145.83 80.6,-120.58 104,-105 109.66,-101.23 116.16,-98.11 122.63,-95.57"/>
<polygon fill="midnightblue" stroke="midnightblue" points="44.22,-161.26 41.29,-171.44 49.93,-165.31 44.22,-161.26"/>
</g>
<!-- Node17 -->
<g id="node18" class="node">
<title>Node17</title>
<g id="a_node18"><a xlink:href="structSelectInstruction.html" target="_top" xlink:title="The output = SELECT i input instruction.">
<polygon fill="none" stroke="black" points="109.5,-38.5 109.5,-57.5 207.5,-57.5 207.5,-38.5 109.5,-38.5"/>
<text text-anchor="middle" x="158.5" y="-45.5" font-family="Helvetica,sans-Serif" font-size="10.00">SelectInstruction</text>
</a>
</g>
</g>
<!-- Node0&#45;&gt;Node17 -->
<g id="edge17" class="edge">
<title>Node0&#45;&gt;Node17</title>
<path fill="none" stroke="midnightblue" d="M41.93,-161.67C51.9,-136.46 72.62,-92.58 104,-67 108.74,-63.14 114.32,-60.03 120.05,-57.54"/>
<polygon fill="midnightblue" stroke="midnightblue" points="38.58,-160.63 38.31,-171.22 45.13,-163.1 38.58,-160.63"/>
</g>
<!-- Node18 -->
<g id="node19" class="node">
<title>Node18</title>
<g id="a_node19"><a xlink:href="structSliceInstruction.html" target="_top" xlink:title="The output = SLICE first end input instruction.">
<polygon fill="none" stroke="black" points="112.5,-0.5 112.5,-19.5 204.5,-19.5 204.5,-0.5 112.5,-0.5"/>
<text text-anchor="middle" x="158.5" y="-7.5" font-family="Helvetica,sans-Serif" font-size="10.00">SliceInstruction</text>
</a>
</g>
</g>
<!-- Node0&#45;&gt;Node18 -->
<g id="edge18" class="edge">
<title>Node0&#45;&gt;Node18</title>
<path fill="none" stroke="midnightblue" d="M38.74,-161.33C45.85,-129.22 64.29,-65.48 104,-29 108.21,-25.13 113.26,-22.04 118.55,-19.58"/>
<polygon fill="midnightblue" stroke="midnightblue" points="35.29,-160.77 36.69,-171.27 42.14,-162.19 35.29,-160.77"/>
</g>
<!-- Node2 -->
<g id="node3" class="node">
<title>Node2</title>
<g id="a_node3"><a xlink:href="structAndInstruction.html" target="_top" xlink:title="The output = AND lhs rhs instruction.">
<polygon fill="none" stroke="black" points="252.5,-437.5 252.5,-456.5 339.5,-456.5 339.5,-437.5 252.5,-437.5"/>
<text text-anchor="middle" x="296" y="-444.5" font-family="Helvetica,sans-Serif" font-size="10.00">AndInstruction</text>
</a>
</g>
</g>
<!-- Node1&#45;&gt;Node2 -->
<g id="edge2" class="edge">
<title>Node1&#45;&gt;Node2</title>
<path fill="none" stroke="midnightblue" d="M176.12,-368.93C193.21,-385.62 221.19,-411.03 249,-428 254.75,-431.51 261.27,-434.65 267.55,-437.31"/>
<polygon fill="midnightblue" stroke="midnightblue" points="178.22,-366.08 168.66,-361.51 173.28,-371.04 178.22,-366.08"/>
</g>
<!-- Node3 -->
<g id="node4" class="node">
<title>Node3</title>
<g id="a_node4"><a xlink:href="structNandInstruction.html" target="_top" xlink:title="The output = NAND lhs rhs instruction.">
<polygon fill="none" stroke="black" points="249,-399.5 249,-418.5 343,-418.5 343,-399.5 249,-399.5"/>
<text text-anchor="middle" x="296" y="-406.5" font-family="Helvetica,sans-Serif" font-size="10.00">NandInstruction</text>
</a>
</g>
</g>
<!-- Node1&#45;&gt;Node3 -->
<g id="edge3" class="edge">
<title>Node1&#45;&gt;Node3</title>
<path fill="none" stroke="midnightblue" d="M191.41,-365.64C208.48,-372.91 229.87,-381.99 249,-390 256.33,-393.07 264.34,-396.39 271.58,-399.38"/>
<polygon fill="midnightblue" stroke="midnightblue" points="192.48,-362.29 181.91,-361.59 189.74,-368.73 192.48,-362.29"/>
</g>
<!-- Node4 -->
<g id="node5" class="node">
<title>Node4</title>
<g id="a_node5"><a xlink:href="structNorInstruction.html" target="_top" xlink:title="The output = NOR lhs rhs instruction.">
<polygon fill="none" stroke="black" points="253,-361.5 253,-380.5 339,-380.5 339,-361.5 253,-361.5"/>
<text text-anchor="middle" x="296" y="-368.5" font-family="Helvetica,sans-Serif" font-size="10.00">NorInstruction</text>
</a>
</g>
</g>
<!-- Node1&#45;&gt;Node4 -->
<g id="edge4" class="edge">
<title>Node1&#45;&gt;Node4</title>
<path fill="none" stroke="midnightblue" d="M218.73,-360.3C230.15,-361.91 241.91,-363.56 252.66,-365.06"/>
<polygon fill="midnightblue" stroke="midnightblue" points="219.19,-356.84 208.8,-358.91 218.22,-363.77 219.19,-356.84"/>
</g>
<!-- Node5 -->
<g id="node6" class="node">
<title>Node5</title>
<g id="a_node6"><a xlink:href="structOrInstruction.html" target="_top" xlink:title="The output = OR lhs rhs instruction.">
<polygon fill="none" stroke="black" points="256,-323.5 256,-342.5 336,-342.5 336,-323.5 256,-323.5"/>
<text text-anchor="middle" x="296" y="-330.5" font-family="Helvetica,sans-Serif" font-size="10.00">OrInstruction</text>
</a>
</g>
</g>
<!-- Node1&#45;&gt;Node5 -->
<g id="edge5" class="edge">
<title>Node1&#45;&gt;Node5</title>
<path fill="none" stroke="midnightblue" d="M218.72,-343.7C231.24,-341.94 244.15,-340.13 255.71,-338.51"/>
<polygon fill="midnightblue" stroke="midnightblue" points="218.22,-340.23 208.8,-345.09 219.19,-347.16 218.22,-340.23"/>
</g>
<!-- Node6 -->
<g id="node7" class="node">
<title>Node6</title>
<g id="a_node7"><a xlink:href="structXnorInstruction.html" target="_top" xlink:title="The output = XNOR lhs rhs instruction.">
<polygon fill="none" stroke="black" points="250.5,-285.5 250.5,-304.5 341.5,-304.5 341.5,-285.5 250.5,-285.5"/>
<text text-anchor="middle" x="296" y="-292.5" font-family="Helvetica,sans-Serif" font-size="10.00">XnorInstruction</text>
</a>
</g>
</g>
<!-- Node1&#45;&gt;Node6 -->
<g id="edge6" class="edge">
<title>Node1&#45;&gt;Node6</title>
<path fill="none" stroke="midnightblue" d="M198.22,-339C203.23,-337.1 208.27,-335.08 213,-333 229.57,-325.73 232.62,-321.68 249,-314 255.88,-310.77 263.47,-307.52 270.46,-304.64"/>
<polygon fill="midnightblue" stroke="midnightblue" points="196.86,-335.77 188.67,-342.5 199.27,-342.34 196.86,-335.77"/>
</g>
<!-- Node7 -->
<g id="node8" class="node">
<title>Node7</title>
<g id="a_node8"><a xlink:href="structXorInstruction.html" target="_top" xlink:title="The output = XOR lhs rhs instruction.">
<polygon fill="none" stroke="black" points="253.5,-247.5 253.5,-266.5 338.5,-266.5 338.5,-247.5 253.5,-247.5"/>
<text text-anchor="middle" x="296" y="-254.5" font-family="Helvetica,sans-Serif" font-size="10.00">XorInstruction</text>
</a>
</g>
</g>
<!-- Node1&#45;&gt;Node7 -->
<g id="edge7" class="edge">
<title>Node1&#45;&gt;Node7</title>
<path fill="none" stroke="midnightblue" d="M205.69,-337.97C208.27,-336.47 210.73,-334.82 213,-333 236.4,-314.29 226.08,-295.29 249,-276 253.5,-272.22 258.85,-269.1 264.29,-266.57"/>
<polygon fill="midnightblue" stroke="midnightblue" points="203.99,-334.9 196.6,-342.5 207.12,-341.17 203.99,-334.9"/>
</g>
<!-- Node12 -->
<g id="node13" class="node">
<title>Node12</title>
<g id="a_node13"><a xlink:href="structRamInstruction.html" target="_top" xlink:title="The output = RAM addr_size word_size read_addr write_enable write_addr write_data instruction.">
<polygon fill="none" stroke="black" points="250.5,-209.5 250.5,-228.5 341.5,-228.5 341.5,-209.5 250.5,-209.5"/>
<text text-anchor="middle" x="296" y="-216.5" font-family="Helvetica,sans-Serif" font-size="10.00">RamInstruction</text>
</a>
</g>
</g>
<!-- Node11&#45;&gt;Node12 -->
<g id="edge12" class="edge">
<title>Node11&#45;&gt;Node12</title>
<path fill="none" stroke="midnightblue" d="M223.24,-208.94C232.33,-210.21 241.51,-211.5 250.13,-212.71"/>
<polygon fill="midnightblue" stroke="midnightblue" points="223.44,-205.43 213.05,-207.51 222.47,-212.36 223.44,-205.43"/>
</g>
<!-- Node13 -->
<g id="node14" class="node">
<title>Node13</title>
<g id="a_node14"><a xlink:href="structRomInstruction.html" target="_top" xlink:title="The output = ROM read_addr instruction.">
<polygon fill="none" stroke="black" points="250.5,-171.5 250.5,-190.5 341.5,-190.5 341.5,-171.5 250.5,-171.5"/>
<text text-anchor="middle" x="296" y="-178.5" font-family="Helvetica,sans-Serif" font-size="10.00">RomInstruction</text>
</a>
</g>
</g>
<!-- Node11&#45;&gt;Node13 -->
<g id="edge13" class="edge">
<title>Node11&#45;&gt;Node13</title>
<path fill="none" stroke="midnightblue" d="M223.24,-191.06C232.33,-189.79 241.51,-188.5 250.13,-187.29"/>
<polygon fill="midnightblue" stroke="midnightblue" points="222.47,-187.64 213.05,-192.49 223.44,-194.57 222.47,-187.64"/>
</g>
</g>
</svg>
