<?xml version="1.0" encoding="UTF-8" standalone="no"?>
<!DOCTYPE svg PUBLIC "-//W3C//DTD SVG 1.1//EN"
 "http://www.w3.org/Graphics/SVG/1.1/DTD/svg11.dtd">
<!-- Generated by graphviz version 2.43.0 (0)
 -->
<!-- Title: Graphical Class Hierarchy Pages: 1 -->
<svg width="319pt" height="165pt"
 viewBox="0.00 0.00 319.00 165.00" xmlns="http://www.w3.org/2000/svg" xmlns:xlink="http://www.w3.org/1999/xlink">
<g id="graph0" class="graph" transform="scale(1 1) rotate(0) translate(4 161)">
<title>Graphical Class Hierarchy</title>
<!-- Node0 -->
<g id="node1" class="node">
<title>Node0</title>
<g id="a_node1"><a xlink:href="structConstInstructionVisitor.html" target="_top" xlink:title="Utility class implementing the visitor pattern for instructions.">
<polygon fill="none" stroke="black" points="0,-69 0,-88 128,-88 128,-69 0,-69"/>
<text text-anchor="middle" x="64" y="-76" font-family="Helvetica,sans-Serif" font-size="10.00">ConstInstructionVisitor</text>
</a>
</g>
</g>
<!-- Node1 -->
<g id="node2" class="node">
<title>Node1</title>
<g id="a_node2"><a xlink:href="structBuilderCodeGenerator_1_1Detail.html" target="_top" xlink:title=" ">
<polygon fill="none" stroke="black" points="175,-126.5 175,-156.5 300,-156.5 300,-126.5 175,-126.5"/>
<text text-anchor="start" x="183" y="-144.5" font-family="Helvetica,sans-Serif" font-size="10.00">BuilderCodeGenerator</text>
<text text-anchor="middle" x="237.5" y="-133.5" font-family="Helvetica,sans-Serif" font-size="10.00">::Detail</text>
</a>
</g>
</g>
<!-- Node0&#45;&gt;Node1 -->
<g id="edge1" class="edge">
<title>Node0&#45;&gt;Node1</title>
<path fill="none" stroke="midnightblue" d="M98.78,-91.8C117.87,-99.23 142.2,-108.56 164,-116.5 173.01,-119.78 182.68,-123.19 191.94,-126.4"/>
<polygon fill="midnightblue" stroke="midnightblue" points="99.91,-88.48 89.32,-88.1 97.37,-95 99.91,-88.48"/>
</g>
<!-- Node2 -->
<g id="node3" class="node">
<title>Node2</title>
<g id="a_node3"><a xlink:href="structDependencyGraph_1_1Builder.html" target="_top" xlink:title=" ">
<polygon fill="none" stroke="black" points="164,-88 164,-107 311,-107 311,-88 164,-88"/>
<text text-anchor="middle" x="237.5" y="-95" font-family="Helvetica,sans-Serif" font-size="10.00">DependencyGraph::Builder</text>
</a>
</g>
</g>
<!-- Node0&#45;&gt;Node2 -->
<g id="edge2" class="edge">
<title>Node0&#45;&gt;Node2</title>
<path fill="none" stroke="midnightblue" d="M138.51,-86.64C146.9,-87.57 155.45,-88.52 163.84,-89.45"/>
<polygon fill="midnightblue" stroke="midnightblue" points="138.7,-83.14 128.37,-85.52 137.93,-90.1 138.7,-83.14"/>
</g>
<!-- Node3 -->
<g id="node4" class="node">
<title>Node3</title>
<g id="a_node4"><a xlink:href="structDisassembler_1_1Detail.html" target="_top" xlink:title=" ">
<polygon fill="none" stroke="black" points="178,-50 178,-69 297,-69 297,-50 178,-50"/>
<text text-anchor="middle" x="237.5" y="-57" font-family="Helvetica,sans-Serif" font-size="10.00">Disassembler::Detail</text>
</a>
</g>
</g>
<!-- Node0&#45;&gt;Node3 -->
<g id="edge3" class="edge">
<title>Node0&#45;&gt;Node3</title>
<path fill="none" stroke="midnightblue" d="M138.38,-70.37C151.59,-68.91 165.21,-67.4 177.93,-65.99"/>
<polygon fill="midnightblue" stroke="midnightblue" points="137.93,-66.9 128.37,-71.48 138.7,-73.86 137.93,-66.9"/>
</g>
<!-- Node4 -->
<g id="node5" class="node">
<title>Node4</title>
<g id="a_node5"><a xlink:href="structInterpreterBackend_1_1Detail.html" target="_top" xlink:title=" ">
<polygon fill="none" stroke="black" points="182.5,-0.5 182.5,-30.5 292.5,-30.5 292.5,-0.5 182.5,-0.5"/>
<text text-anchor="start" x="190.5" y="-18.5" font-family="Helvetica,sans-Serif" font-size="10.00">InterpreterBackend</text>
<text text-anchor="middle" x="237.5" y="-7.5" font-family="Helvetica,sans-Serif" font-size="10.00">::Detail</text>
</a>
</g>
</g>
<!-- Node0&#45;&gt;Node4 -->
<g id="edge4" class="edge">
<title>Node0&#45;&gt;Node4</title>
<path fill="none" stroke="midnightblue" d="M98.78,-65.2C117.87,-57.77 142.2,-48.44 164,-40.5 173.01,-37.22 182.68,-33.81 191.94,-30.6"/>
<polygon fill="midnightblue" stroke="midnightblue" points="97.37,-62 89.32,-68.9 99.91,-68.52 97.37,-62"/>
</g>
</g>
</svg>
