<?xml version="1.0" encoding="UTF-8" standalone="no"?>
<!-- Created with Inkscape (http://www.inkscape.org/) -->

<svg
   width="21.440231mm"
   height="16.234604mm"
   viewBox="0 0 21.440231 16.234604"
   version="1.1"
   id="svg1"
   xmlns="http://www.w3.org/2000/svg"
   xmlns:svg="http://www.w3.org/2000/svg">
  <defs
     id="defs1" />
  <g
     id="layer1"
     transform="translate(-25.532292,-69.849997)">
    <rect
       style="display:none;fill:#000000;stroke-width:0.429001;stroke-dasharray:none"
       id="rect4"
       width="122.36979"
       height="25.664583"
       x="18.520832"
       y="64.161461" />
    <g
       id="g4"
       transform="translate(0.52916667,24.738542)">
      <g
         id="use1-5"
         style="fill:none;fill-opacity:1;stroke:#ffffff;stroke-width:2.96651;stroke-dasharray:none;stroke-opacity:1"
         transform="matrix(0.17831071,0,0,0.16316678,30.202896,40.458472)">
        <title
           id="title2-8">And Gate</title>
        <path
           d="M 25,70 V 60 50 40 30 h 30 c 11.045695,0 20,8.954305 20,20 0,11.045695 -8.954305,20 -20,20 z"
           id="path3-8"
           style="stroke:#ffffff;stroke-opacity:1" />
      </g>
      <g
         id="use1-2-3"
         style="fill:none;fill-opacity:1;stroke:#ffffff;stroke-width:3.13488;stroke-dasharray:none;stroke-opacity:1"
         transform="matrix(0.15918642,0,0,0.16366389,31.624343,49.633055)">
        <title
           id="title1-1">Xor Gate</title>
        <path
           d="M 24.65625,70 H 45 C 65,70 75,50 75,50 75,50 70,30 45,30 H 24.65625 c 1.789926,3.094188 3.151364,6.453471 4.0625,10 C 29.54012,43.197121 30,46.545819 30,50 c 0,3.454181 -0.45988,6.802879 -1.28125,10 -0.911136,3.546529 -2.272574,6.905812 -4.0625,10 z"
           id="path1-8"
           style="stroke:#ffffff;stroke-width:3.13488;stroke-dasharray:none;stroke-opacity:1" />
        <path
           d="M 18.65625,70 C 22.629549,64.322431 25,57.455703 25,50 25,42.544297 22.629549,35.677569 18.65625,30"
           id="path2-5"
           style="stroke:#ffffff;stroke-width:3.13488;stroke-dasharray:none;stroke-opacity:1" />
      </g>
      <rect
         style="fill:none;fill-opacity:1;stroke:#ffffff;stroke-width:0.429;stroke-dasharray:none;stroke-opacity:1"
         id="rect3-8"
         width="9.2724743"
         height="0.37090015"
         x="25.217625"
         y="46.88657" />
      <rect
         style="fill:none;fill-opacity:1;stroke:#ffffff;stroke-width:0.429;stroke-dasharray:none;stroke-opacity:1"
         id="rect3-4-3"
         width="2.5088465"
         height="0.37090015"
         x="43.720013"
         y="48.438625" />
      <rect
         style="fill:none;fill-opacity:1;stroke:#ffffff;stroke-width:0.429;stroke-dasharray:none;stroke-opacity:1"
         id="rect3-4-0-7"
         width="2.7184651"
         height="0.37090015"
         x="43.507961"
         y="57.610394" />
      <rect
         style="fill:none;fill-opacity:1;stroke:#ffffff;stroke-width:0.429;stroke-dasharray:none;stroke-opacity:1"
         id="rect3-6-9"
         width="9.2724743"
         height="0.37090015"
         x="25.217625"
         y="50.320492" />
      <rect
         style="fill:none;fill-opacity:1;stroke:#ffffff;stroke-width:0.429;stroke-dasharray:none;stroke-opacity:1"
         id="rect3-6-8-61"
         width="9.3440533"
         height="0.37089899"
         x="-56.466808"
         y="32.009655"
         transform="rotate(-90)" />
      <rect
         style="fill:none;fill-opacity:1;stroke:#ffffff;stroke-width:0.429;stroke-dasharray:none;stroke-opacity:1"
         id="rect3-6-8-6-0"
         width="9.3900537"
         height="0.37089899"
         x="-59.931797"
         y="29.752399"
         transform="rotate(-90)" />
      <rect
         style="fill:none;fill-opacity:1;stroke:#ffffff;stroke-width:0.429;stroke-dasharray:none;stroke-opacity:1"
         id="rect3-6-0-8"
         width="3.159564"
         height="0.37090015"
         x="32.139942"
         y="56.097843" />
      <rect
         style="fill:none;fill-opacity:1;stroke:#ffffff;stroke-width:0.429;stroke-dasharray:none;stroke-opacity:1"
         id="rect3-6-0-4-1"
         width="5.3880157"
         height="0.37090015"
         x="29.886288"
         y="59.558361" />
      <text
         xml:space="preserve"
         style="font-size:19.7556px;fill:#000000;stroke:none;stroke-width:0.264583;stroke-opacity:1"
         x="50.623608"
         y="59.861843"
         id="text4-9"><tspan
           id="tspan4-7"
           style="font-style:normal;font-variant:normal;font-weight:normal;font-stretch:normal;font-size:19.7556px;font-family:'Text Me One';-inkscape-font-specification:'Text Me One';fill:#ffffff;fill-opacity:1;stroke:none;stroke-width:0.264583;stroke-opacity:1"
           x="50.623608"
           y="59.861843">NETLIST++</tspan></text>
    </g>
  </g>
</svg>
