<?xml version="1.0" encoding="UTF-8" standalone="no"?>
<!DOCTYPE svg PUBLIC "-//W3C//DTD SVG 1.1//EN"
 "http://www.w3.org/Graphics/SVG/1.1/DTD/svg11.dtd">
<!-- Generated by graphviz version 2.43.0 (0)
 -->
<!-- Title: BinaryInstruction Pages: 1 -->
<svg width="342pt" height="218pt"
 viewBox="0.00 0.00 342.00 218.00" xmlns="http://www.w3.org/2000/svg" xmlns:xlink="http://www.w3.org/1999/xlink">
<g id="graph0" class="graph" transform="scale(1 1) rotate(0) translate(4 214)">
<title>BinaryInstruction</title>
<!-- Node1 -->
<g id="node1" class="node">
<title>Node1</title>
<g id="a_node1"><a xlink:title="Base class for all binary instructions such as AND or XOR.">
<polygon fill="#bfbfbf" stroke="black" points="104,-95.5 104,-114.5 204,-114.5 204,-95.5 104,-95.5"/>
<text text-anchor="middle" x="154" y="-102.5" font-family="Helvetica,sans-Serif" font-size="10.00">BinaryInstruction</text>
</a>
</g>
</g>
<!-- Node3 -->
<g id="node3" class="node">
<title>Node3</title>
<g id="a_node3"><a xlink:href="structAndInstruction.html" target="_top" xlink:title="The output = AND lhs rhs instruction.">
<polygon fill="none" stroke="black" points="243.5,-190.5 243.5,-209.5 330.5,-209.5 330.5,-190.5 243.5,-190.5"/>
<text text-anchor="middle" x="287" y="-197.5" font-family="Helvetica,sans-Serif" font-size="10.00">AndInstruction</text>
</a>
</g>
</g>
<!-- Node1&#45;&gt;Node3 -->
<g id="edge2" class="edge">
<title>Node1&#45;&gt;Node3</title>
<path fill="none" stroke="midnightblue" d="M170.63,-121.99C186.73,-138.73 213.2,-164.18 240,-181 245.71,-184.58 252.21,-187.75 258.49,-190.41"/>
<polygon fill="midnightblue" stroke="midnightblue" points="173.01,-119.42 163.6,-114.55 167.92,-124.22 173.01,-119.42"/>
</g>
<!-- Node4 -->
<g id="node4" class="node">
<title>Node4</title>
<g id="a_node4"><a xlink:href="structNandInstruction.html" target="_top" xlink:title="The output = NAND lhs rhs instruction.">
<polygon fill="none" stroke="black" points="240,-152.5 240,-171.5 334,-171.5 334,-152.5 240,-152.5"/>
<text text-anchor="middle" x="287" y="-159.5" font-family="Helvetica,sans-Serif" font-size="10.00">NandInstruction</text>
</a>
</g>
</g>
<!-- Node1&#45;&gt;Node4 -->
<g id="edge3" class="edge">
<title>Node1&#45;&gt;Node4</title>
<path fill="none" stroke="midnightblue" d="M185.37,-118.83C201.54,-126.13 221.8,-135.17 240,-143 247.3,-146.14 255.3,-149.48 262.54,-152.46"/>
<polygon fill="midnightblue" stroke="midnightblue" points="186.44,-115.47 175.89,-114.54 183.55,-121.85 186.44,-115.47"/>
</g>
<!-- Node5 -->
<g id="node5" class="node">
<title>Node5</title>
<g id="a_node5"><a xlink:href="structNorInstruction.html" target="_top" xlink:title="The output = NOR lhs rhs instruction.">
<polygon fill="none" stroke="black" points="244,-114.5 244,-133.5 330,-133.5 330,-114.5 244,-114.5"/>
<text text-anchor="middle" x="287" y="-121.5" font-family="Helvetica,sans-Serif" font-size="10.00">NorInstruction</text>
</a>
</g>
</g>
<!-- Node1&#45;&gt;Node5 -->
<g id="edge4" class="edge">
<title>Node1&#45;&gt;Node5</title>
<path fill="none" stroke="midnightblue" d="M214.09,-113.57C224.13,-115.03 234.38,-116.51 243.87,-117.89"/>
<polygon fill="midnightblue" stroke="midnightblue" points="214.55,-110.1 204.15,-112.13 213.55,-117.03 214.55,-110.1"/>
</g>
<!-- Node6 -->
<g id="node6" class="node">
<title>Node6</title>
<g id="a_node6"><a xlink:href="structOrInstruction.html" target="_top" xlink:title="The output = OR lhs rhs instruction.">
<polygon fill="none" stroke="black" points="247,-76.5 247,-95.5 327,-95.5 327,-76.5 247,-76.5"/>
<text text-anchor="middle" x="287" y="-83.5" font-family="Helvetica,sans-Serif" font-size="10.00">OrInstruction</text>
</a>
</g>
</g>
<!-- Node1&#45;&gt;Node6 -->
<g id="edge5" class="edge">
<title>Node1&#45;&gt;Node6</title>
<path fill="none" stroke="midnightblue" d="M214.2,-96.41C225.25,-94.81 236.54,-93.17 246.8,-91.69"/>
<polygon fill="midnightblue" stroke="midnightblue" points="213.55,-92.97 204.15,-97.87 214.55,-99.9 213.55,-92.97"/>
</g>
<!-- Node7 -->
<g id="node7" class="node">
<title>Node7</title>
<g id="a_node7"><a xlink:href="structXnorInstruction.html" target="_top" xlink:title="The output = XNOR lhs rhs instruction.">
<polygon fill="none" stroke="black" points="241.5,-38.5 241.5,-57.5 332.5,-57.5 332.5,-38.5 241.5,-38.5"/>
<text text-anchor="middle" x="287" y="-45.5" font-family="Helvetica,sans-Serif" font-size="10.00">XnorInstruction</text>
</a>
</g>
</g>
<!-- Node1&#45;&gt;Node7 -->
<g id="edge6" class="edge">
<title>Node1&#45;&gt;Node7</title>
<path fill="none" stroke="midnightblue" d="M185.37,-91.17C201.54,-83.87 221.8,-74.83 240,-67 247.3,-63.86 255.3,-60.52 262.54,-57.54"/>
<polygon fill="midnightblue" stroke="midnightblue" points="183.55,-88.15 175.89,-95.46 186.44,-94.53 183.55,-88.15"/>
</g>
<!-- Node8 -->
<g id="node8" class="node">
<title>Node8</title>
<g id="a_node8"><a xlink:href="structXorInstruction.html" target="_top" xlink:title="The output = XOR lhs rhs instruction.">
<polygon fill="none" stroke="black" points="244.5,-0.5 244.5,-19.5 329.5,-19.5 329.5,-0.5 244.5,-0.5"/>
<text text-anchor="middle" x="287" y="-7.5" font-family="Helvetica,sans-Serif" font-size="10.00">XorInstruction</text>
</a>
</g>
</g>
<!-- Node1&#45;&gt;Node8 -->
<g id="edge7" class="edge">
<title>Node1&#45;&gt;Node8</title>
<path fill="none" stroke="midnightblue" d="M170.63,-88.01C186.73,-71.27 213.2,-45.82 240,-29 245.71,-25.42 252.21,-22.25 258.49,-19.59"/>
<polygon fill="midnightblue" stroke="midnightblue" points="167.92,-85.78 163.6,-95.45 173.01,-90.58 167.92,-85.78"/>
</g>
<!-- Node2 -->
<g id="node2" class="node">
<title>Node2</title>
<g id="a_node2"><a xlink:href="structInstruction.html" target="_top" xlink:title="Base class for all instructions.">
<polygon fill="none" stroke="black" points="0,-95.5 0,-114.5 68,-114.5 68,-95.5 0,-95.5"/>
<text text-anchor="middle" x="34" y="-102.5" font-family="Helvetica,sans-Serif" font-size="10.00">Instruction</text>
</a>
</g>
</g>
<!-- Node2&#45;&gt;Node1 -->
<g id="edge1" class="edge">
<title>Node2&#45;&gt;Node1</title>
<path fill="none" stroke="midnightblue" d="M78.36,-105C86.63,-105 95.33,-105 103.77,-105"/>
<polygon fill="midnightblue" stroke="midnightblue" points="78.18,-101.5 68.18,-105 78.18,-108.5 78.18,-101.5"/>
</g>
</g>
</svg>
